<svg xmlns="http://www.w3.org/2000/svg" width="237" height="242" viewBox="0 0 237 242">
<g>
<path d="M 62.69 240.95 C29.58,237.29 8.27,218.50 2.60,187.96 C0.69,177.70 -0.45,99.93 0.94,74.50 C2.07,53.63 3.39,47.01 8.51,36.50 C17.94,17.15 34.86,5.58 58.97,2.02 C79.42,-1.00 170.85,0.01 186.37,3.43 C204.34,7.39 220.93,19.89 228.33,35.05 C236.53,51.84 237.25,59.71 236.74,127.50 C236.27,189.54 236.13,190.91 228.81,206.00 C223.02,217.93 212.83,228.12 201.00,233.80 C185.97,241.01 182.68,241.33 123.00,241.59 C94.12,241.71 66.98,241.42 62.69,240.95 ZM 181.13 219.61 C190.12,217.64 196.88,214.02 202.95,207.95 C208.89,202.01 212.35,195.65 214.75,186.26 C216.29,180.24 216.48,173.20 216.49,122.00 C216.50,61.92 216.34,59.34 211.98,47.68 C209.17,40.15 199.86,30.02 192.67,26.64 C182.08,21.67 179.60,21.50 118.00,21.50 C66.58,21.50 59.84,21.68 54.25,23.23 C38.29,27.65 29.04,36.43 23.66,52.29 C21.62,58.27 21.53,60.59 21.22,115.43 C21.02,150.77 21.29,175.58 21.93,180.85 C24.19,199.32 35.12,213.17 51.63,218.50 C60.15,221.25 76.18,221.88 126.50,221.46 C163.63,221.16 176.00,220.74 181.13,219.61 ZM 109.25 180.89 C96.94,178.84 86.84,173.79 77.60,165.07 C69.88,157.78 63.76,148.25 60.85,138.98 C57.60,128.64 57.55,113.50 60.72,103.50 C68.55,78.77 89.21,62.60 114.73,61.23 C137.12,60.02 156.32,68.96 167.95,86.00 C177.95,100.65 181.17,117.03 177.49,134.50 C172.66,157.39 152.76,176.35 129.15,180.57 C120.56,182.10 116.85,182.16 109.25,180.89 ZM 133.32 158.99 C141.42,155.95 150.93,146.91 155.24,138.17 C158.29,131.96 158.50,130.88 158.50,121.02 C158.50,111.68 158.20,109.85 155.80,104.75 C152.05,96.73 144.13,88.68 136.11,84.73 C129.97,81.71 128.87,81.50 119.02,81.50 C110.38,81.50 107.49,81.91 102.85,83.78 C83.98,91.41 73.58,113.95 80.07,133.20 C87.66,155.74 111.38,167.23 133.32,158.99 ZM 175.41 68.11 C170.05,64.84 168.00,61.34 168.00,55.44 C168.00,51.15 168.51,49.55 170.70,46.94 C179.86,36.06 196.17,41.52 196.17,55.46 C196.17,61.04 193.75,65.21 188.95,67.91 C184.34,70.50 179.45,70.57 175.41,68.11 Z" fill="rgba(192,238,78,1)"/>
</g>
</svg>